# xmcd
#
# Track frame offsets:
#	150
#	13571
#	25369
#	39007
#	54058
#	67016
#	78973
#	95144
#	111898
#	131561
#	141373
#
# Disc length: 2092 seconds
#
# Revision: 0
# Processed by: cddbd v1.4PL0 Copyright (c) Steve Scherf et al.
# Submitted via: dBpowerAMP V4.0
#
DISCID=8b082a0b
DTITLE=Marcel Dadi - Mélodies
DYEAR=1980
DGENRE=Picking
TTITLE0=Aller Simple
TTITLE1=Nous Trois
TTITLE2=Convoi Express
TTITLE3=Number One Son
TTITLE4=Living Close to You
TTITLE5=Fluide Glacial
TTITLE6=Ballade Pour Une Princesse
TTITLE7=Holidays With Samuel
TTITLE8=Lune de Miel
TTITLE9=La Balagane
TTITLE10=Priere Pour Michel Lopez
EXTD=1980 LP Sonopresse 2C068-72272\nPochette: B. Bernhardt\nJamais réédité, mais presque tous les morceaux ont été réenregistrés en solo pour "guitar legend", Vol 1 (1989), Vol 2 (1991]\n11 Morceaux (6+5)
EXTT0=
EXTT1=
EXTT2=
EXTT3=
EXTT4=
EXTT5=
EXTT6=
EXTT7=
EXTT8=
EXTT9=
EXTT10=
PLAYORDER=
